<svg xmlns="http://www.w3.org/2000/svg" width="232" height="33" viewBox="0 0 232 33" fill="none"><path d="M26.1624 5.24788C24.7981 3.92056 23.1732 2.89089 21.3904 2.22405C19.4852 1.51577 17.4667 1.16138 15.4341 1.17831H0V5.55656H3.12147V31.9111H15.3585C17.3934 31.926 19.4146 31.5783 21.3274 30.8843C23.1197 30.2323 24.7535 29.2082 26.1215 27.8793C27.5024 26.5061 28.5825 24.8607 29.2933 23.0475C30.0888 20.9728 30.4791 18.7648 30.443 16.5431C30.4757 14.3365 30.091 12.1435 29.3091 10.0797C28.6117 8.2657 27.5395 6.61923 26.1624 5.24788ZM24.5402 21.2805C24.115 22.544 23.4208 23.7003 22.5055 24.6697C21.6257 25.5748 20.558 26.2758 19.3777 26.7234C18.1058 27.1985 16.7572 27.4356 15.3995 27.4226H8.25883V5.66996H15.4341C16.7993 5.65333 18.1558 5.89043 19.4344 6.36922C20.6004 6.81792 21.6533 7.51803 22.5181 8.41975C23.4238 9.39416 24.1111 10.5507 24.5339 11.8121C25.0385 13.3352 25.2824 14.9326 25.2553 16.5368C25.2862 18.1471 25.0444 19.7509 24.5402 21.2805Z" fill="white"/><path d="M51.5309 13.3148C50.5327 12.3462 49.3443 11.5954 48.0409 11.1099C45.2181 10.0936 42.1292 10.0936 39.3064 11.1099C37.9993 11.5938 36.8044 12.3386 35.7944 13.299C34.7829 14.2783 33.9879 15.4586 33.4604 16.7638C32.8799 18.2112 32.5919 19.7592 32.6131 21.3185C32.5904 22.8717 32.8785 24.4139 33.4604 25.8542C33.9889 27.1589 34.7839 28.339 35.7944 29.319C36.8057 30.2801 37.9986 31.0297 39.3033 31.5239C42.1219 32.5697 45.2222 32.5697 48.0409 31.5239C49.3492 31.0339 50.5411 30.2766 51.5406 29.3005C52.5401 28.3243 53.3252 27.1506 53.846 25.8542C54.4251 24.4131 54.7121 22.8714 54.6902 21.3185C54.7133 19.7669 54.4319 18.2259 53.8617 16.7827C53.3308 15.4791 52.5374 14.2987 51.5309 13.3148ZM49.3008 24.1848C49.0259 24.9646 48.589 25.6774 48.0188 26.2763C47.4691 26.8366 46.8111 27.2792 46.0848 27.5771C45.3183 27.8862 44.4985 28.0414 43.6721 28.0339C42.8627 28.0585 42.057 27.9153 41.3057 27.6133C40.5544 27.3114 39.8737 26.8572 39.3064 26.2794C38.1662 25.1108 37.5898 23.4446 37.5898 21.3405C37.5898 19.2364 38.1662 17.5292 39.3064 16.3638C39.8735 15.7856 40.5541 15.3309 41.3054 15.0284C42.0568 14.726 42.8625 14.5822 43.6721 14.6062C44.4981 14.5993 45.3177 14.7534 46.0848 15.0598C46.8148 15.3592 47.4729 15.8101 48.0157 16.3827C48.5866 16.99 49.0243 17.7099 49.3008 18.4962C49.6165 19.4075 49.7711 20.3668 49.7575 21.3311C49.7726 22.3016 49.6181 23.2674 49.3008 24.1848Z" fill="white"/><path d="M72.3448 24.0297C72.1963 25.1761 71.6244 26.2255 70.7415 26.9716C69.8816 27.674 68.7445 28.0299 67.3555 28.0299C66.5845 28.0381 65.8197 27.8914 65.1065 27.5984C64.4266 27.3086 63.8229 26.8656 63.3426 26.3038C62.8207 25.6839 62.4181 24.9726 62.1551 24.2061C61.8482 23.2812 61.7001 22.3109 61.7173 21.3366C61.7173 19.1695 62.2496 17.4875 63.2922 16.3347C63.8026 15.7692 64.4297 15.3215 65.1302 15.0223C65.8307 14.7232 66.5878 14.5799 67.3492 14.6023C68.5677 14.5638 69.7602 14.9601 70.7132 15.7204C71.6295 16.511 72.1958 17.6321 72.2881 18.8388L72.307 19.0057L77.1388 18.5836L77.1136 18.4041C76.9673 17.2268 76.5951 16.0889 76.0175 15.0527C75.4707 14.0857 74.7461 13.2308 73.8819 12.5328C72.9999 11.8279 71.998 11.288 70.9242 10.939C69.7726 10.5614 68.5674 10.3731 67.3555 10.3815C65.9065 10.3665 64.4672 10.6185 63.1095 11.1249C61.8525 11.5963 60.7102 12.3297 59.7581 13.2762C58.7927 14.2672 58.0421 15.4467 57.5532 16.741C56.9982 18.2216 56.7257 19.7933 56.75 21.3744C56.7257 22.9555 56.9982 24.5271 57.5532 26.0078C58.0453 27.3071 58.8063 28.4878 59.7865 29.4726C60.7495 30.4145 61.897 31.1469 63.1568 31.6239C64.5013 32.1263 65.9265 32.3783 67.3618 32.3672C68.5785 32.3769 69.7892 32.1951 70.9494 31.8286C72.0135 31.4765 73.0065 30.9379 73.8819 30.238C74.738 29.5577 75.4555 28.7193 75.9954 27.7685C76.5699 26.7522 76.9672 25.6455 77.1703 24.4958L77.2018 24.31L72.3889 23.8722L72.3448 24.0297Z" fill="white"/><path d="M96.668 12.7064C95.9306 11.9439 95.0379 11.3488 94.0505 10.9614C92.9868 10.5511 91.8548 10.347 90.7148 10.3598C89.4179 10.316 88.1312 10.6033 86.976 11.1945C86.24 11.5855 85.5823 12.1087 85.0357 12.7379V0H80.144V31.9108H85.0452V19.8439C84.9987 18.553 85.4497 17.2935 86.3051 16.3255C86.7375 15.8647 87.2639 15.5021 87.8486 15.2624C88.4334 15.0228 89.0628 14.9116 89.6943 14.9364C90.2863 14.9115 90.8768 15.0136 91.426 15.2358C91.9753 15.458 92.4706 15.7952 92.8788 16.2247C93.6694 17.0815 94.0694 18.2847 94.0694 19.8029V31.9203H99.0052V19.1856C99.0212 17.9249 98.8077 16.6719 98.3752 15.4877C97.9999 14.4547 97.4191 13.5086 96.668 12.7064Z" fill="white"/><path d="M117.261 12.5606C115.825 11.1369 113.712 10.4156 110.987 10.4156C109.778 10.3935 108.577 10.6075 107.45 11.0456C106.469 11.4305 105.573 12.0041 104.813 12.7339C104.112 13.4159 103.551 14.2293 103.163 15.1278C102.784 15.994 102.586 16.9288 102.583 17.8744V17.9846L107.403 18.1547V18.0476C107.39 17.1664 107.699 16.3109 108.272 15.6412C108.842 14.9671 109.768 14.6269 111.028 14.6269C112.288 14.6269 113.201 15.0018 113.759 15.7388C114.316 16.4759 114.609 17.5374 114.609 18.8571V19.3611L109.762 19.6383C108.746 19.685 107.738 19.836 106.754 20.0887C105.865 20.308 105.025 20.6927 104.278 21.2227C103.576 21.7302 103.007 22.3989 102.618 23.1724C102.194 24.0702 101.987 25.0556 102.016 26.0482C102.016 28.0263 102.672 29.5728 103.966 30.6469C105.261 31.721 106.974 32.2565 109.078 32.2565C110.175 32.268 111.262 32.0535 112.272 31.6265C113.127 31.2538 113.916 30.7454 114.609 30.1209V31.8375H119.429V18.7784C119.429 16.0758 118.701 13.9844 117.261 12.5606ZM114.653 23.7331C114.653 25.2859 114.209 26.4325 113.334 27.138C112.458 27.8436 111.28 28.209 109.853 28.209C109.085 28.2421 108.323 28.0657 107.648 27.6987C107.097 27.3648 106.829 26.7978 106.829 25.9694C106.829 25.056 107.144 24.4323 107.806 24.0575C108.613 23.6394 109.507 23.4151 110.417 23.4023L114.653 23.1251V23.7331Z" fill="white"/><path d="M137.216 21.3265C136.515 20.8222 135.746 20.4202 134.932 20.1327C133.964 19.7811 132.978 19.4815 131.977 19.235C131.272 19.0712 130.642 18.9284 130.088 18.8066C129.607 18.7075 129.137 18.5609 128.686 18.3688C128.352 18.2262 128.054 18.011 127.813 17.7388C127.598 17.451 127.492 17.096 127.514 16.7372C127.502 16.4284 127.566 16.1214 127.7 15.843C127.834 15.5646 128.034 15.3233 128.283 15.1402C128.802 14.7402 129.599 14.5354 130.651 14.5354C131.779 14.5354 132.626 14.8063 133.171 15.3355C133.726 15.8857 134.062 16.619 134.116 17.3986V17.5057L138.907 17.26L138.891 17.1403C138.789 16.2272 138.539 15.3368 138.151 14.5039C137.772 13.6877 137.231 12.9569 136.56 12.3558C135.843 11.7239 135.008 11.2391 134.104 10.9289C133.032 10.57 131.907 10.3964 130.777 10.4155C128.213 10.4155 126.213 11.0139 124.831 12.1888C124.154 12.7542 123.615 13.4653 123.253 14.2689C122.891 15.0724 122.715 15.9475 122.739 16.8285C122.705 17.7371 122.891 18.6405 123.281 19.4618C123.645 20.1437 124.175 20.7232 124.821 21.1469C125.542 21.6148 126.325 21.9816 127.146 22.2368C128.028 22.5234 129.007 22.7911 130.056 23.0305C130.891 23.2479 131.609 23.44 132.189 23.6006C132.666 23.7225 133.128 23.9024 133.562 24.1361C133.858 24.2935 134.104 24.5315 134.271 24.8228C134.42 25.1427 134.491 25.4936 134.478 25.8465C134.494 26.1851 134.414 26.5213 134.247 26.8161C134.08 27.111 133.832 27.3525 133.534 27.5127C132.773 27.922 131.917 28.1199 131.055 28.086C129.842 28.086 128.9 27.8277 128.261 27.3206C127.61 26.7854 127.195 26.0164 127.105 25.1787V25.0747L122.33 25.3897V25.5094C122.578 27.6167 123.451 29.2892 124.931 30.4798C126.412 31.6705 128.443 32.2721 130.976 32.2721C133.508 32.2721 135.578 31.6768 137.039 30.5019C138.501 29.327 139.244 27.6355 139.244 25.4968C139.276 24.6895 139.107 23.887 138.751 23.1616C138.395 22.4362 137.864 21.8109 137.206 21.3422L137.216 21.3265Z" fill="white"/><path d="M161.8 20.8115C161.818 19.3466 161.582 17.8896 161.101 16.5057C160.674 15.2908 160.003 14.1761 159.129 13.2299C158.261 12.3132 157.198 11.6019 156.02 11.1479C154.712 10.6546 153.323 10.411 151.925 10.4297C150.483 10.4152 149.05 10.6661 147.698 11.1699C146.446 11.6417 145.311 12.3776 144.369 13.3276C143.415 14.3107 142.673 15.4793 142.189 16.7609C141.656 18.2266 141.398 19.7781 141.427 21.3375C141.405 22.8958 141.668 24.4449 142.205 25.9079C142.686 27.2061 143.438 28.3872 144.41 29.3727C145.367 30.3246 146.516 31.0613 147.78 31.5335C149.153 32.0358 150.605 32.2855 152.067 32.2706C153.238 32.2787 154.402 32.099 155.516 31.7383C156.535 31.4054 157.497 30.9201 158.37 30.2988C159.186 29.7157 159.89 28.9901 160.449 28.1569C160.984 27.3518 161.369 26.4565 161.586 25.5142L161.617 25.3819L156.801 25.1236L156.776 25.2087C156.505 26.0992 155.915 26.8586 155.119 27.3411C154.145 27.8798 153.041 28.1402 151.929 28.0939C150.369 28.0939 149.094 27.6403 148.127 26.7458C147.155 25.797 146.571 24.5203 146.489 23.1644H161.794L161.8 20.8115ZM146.536 19.3563C146.687 17.8286 147.235 16.638 148.171 15.8191C149.213 14.9519 150.54 14.5028 151.894 14.5591C153.56 14.5591 154.823 15.0127 155.648 15.9041C156.492 16.8627 156.962 18.0923 156.975 19.3689L146.536 19.3563Z" fill="white"/><path d="M184.013 23.3816H169.621L166.084 32.0089H163.501L175.785 2.27148H177.814L190.098 32.0089H187.512L184.013 23.3816ZM176.818 5.89063L170.456 21.394H183.14L176.818 5.89063Z" fill="white"/><path d="M208.742 28.1531C208.118 29.4192 207.131 30.4708 205.907 31.1737C204.592 31.9717 202.982 32.3696 201.075 32.3675C199.764 32.379 198.462 32.1428 197.238 31.6714C196.08 31.2206 195.03 30.5292 194.158 29.6429C193.255 28.7078 192.552 27.5986 192.092 26.3829C191.567 24.9795 191.311 23.4901 191.336 21.992C191.312 20.4879 191.568 18.9925 192.092 17.5823C192.548 16.3581 193.251 15.2409 194.158 14.3002C195.033 13.4132 196.082 12.7163 197.238 12.2528C198.459 11.7692 199.762 11.5264 201.075 11.5378C202.984 11.5378 204.581 11.922 205.866 12.6906C207.07 13.3729 208.046 14.3966 208.669 15.6325V1.11816H210.896V32.0085H208.748L208.742 28.1531ZM198.227 14.0608C197.302 14.4066 196.467 14.9568 195.783 15.6703C195.065 16.4308 194.51 17.3301 194.152 18.313C193.734 19.4796 193.533 20.7123 193.556 21.9511C193.533 23.1898 193.735 24.4225 194.152 25.5891C194.51 26.572 195.065 27.4713 195.783 28.2318C196.47 28.9469 197.304 29.5037 198.227 29.8634C199.198 30.2402 200.232 30.4283 201.273 30.4178C202.261 30.4262 203.244 30.2653 204.177 29.9422C205.057 29.6365 205.858 29.1407 206.524 28.4901C207.21 27.8031 207.739 26.9756 208.074 26.0647C208.468 24.963 208.657 23.7982 208.631 22.6283V21.2739C208.654 20.1103 208.465 18.9523 208.074 17.8563C207.76 16.9587 207.246 16.1447 206.569 15.4765C205.893 14.8083 205.073 14.3036 204.171 14.0009C203.24 13.6774 202.26 13.5155 201.273 13.5222C200.234 13.5128 199.201 13.6954 198.227 14.0608Z" fill="white"/><path d="M229.307 32.0093L222.945 23.1457L216.506 32.0093H213.873L221.266 21.5928L214.308 11.8945H216.972L222.935 20.1219L228.819 11.8945H231.484L224.526 21.6338L232 32.0093H229.307Z" fill="white"/></svg>