<svg xmlns="http://www.w3.org/2000/svg" width="28" height="28" viewBox="0 0 28 28" fill="none"><path d="M13.9091 0.000976562C6.40923 0.000976562 0.272949 6.14821 0.272949 13.7193C0.272949 20.5648 5.26379 26.2466 11.7819 27.2734V17.6897H8.3183V13.7193H11.7819V10.6936C11.7819 7.25718 13.8137 5.36783 16.9364 5.36783C18.4227 5.36783 19.9772 5.62796 19.9772 5.62796V9.00962H18.2591C16.5682 9.00962 16.0364 10.0638 16.0364 11.1454V13.7193H19.8272L19.2136 17.6897H16.0364V27.2734C19.2496 26.7638 22.1757 25.1177 24.2861 22.6321C26.3966 20.1467 27.5527 16.9854 27.5453 13.7193C27.5453 6.14821 21.409 0.000976562 13.9091 0.000976562Z" fill="white"/></svg>