<svg xmlns="http://www.w3.org/2000/svg" width="28" height="28" viewBox="0 0 28 28" fill="none"><path d="M13.6363 16.0342C14.9574 16.0342 16.0387 14.9582 16.0387 13.6318C16.0387 13.1098 15.8682 12.6251 15.5859 12.2309C15.1491 11.629 14.4407 11.2295 13.6417 11.2295C12.8427 11.2295 12.1342 11.6237 11.6974 12.2309C11.4151 12.6251 11.2446 13.1098 11.2446 13.6318C11.2393 14.9582 12.3153 16.0342 13.6363 16.0342Z" fill="white"/><path d="M18.8777 10.7024V8.68892V8.39062H18.5794L16.5659 8.39595L16.5766 10.7077L18.8777 10.7024Z" fill="white"/><path d="M17.3651 13.6373C17.3651 15.6934 15.6925 17.3659 13.6364 17.3659C11.5803 17.3659 9.90771 15.6934 9.90771 13.6373C9.90771 13.1419 10.0089 12.6678 10.1847 12.2363H8.1499V17.8187C8.1499 18.5378 8.73584 19.1238 9.45494 19.1238H17.8179C18.537 19.1238 19.1229 18.5378 19.1229 17.8187V12.2363H17.0881C17.2692 12.6678 17.3651 13.1419 17.3651 13.6373Z" fill="white"/><path d="M13.6364 0.000976562C6.1044 0.000976562 0 6.10538 0 13.6373C0 21.1693 6.1044 27.2737 13.6364 27.2737C21.1683 27.2737 27.2727 21.1693 27.2727 13.6373C27.2727 6.10538 21.1683 0.000976562 13.6364 0.000976562ZM20.4545 12.2364V17.8188C20.4545 19.273 19.272 20.4555 17.8178 20.4555H9.4549C8.00071 20.4555 6.81818 19.273 6.81818 17.8188V12.2364V9.45055C6.81818 7.99636 8.00071 6.81383 9.4549 6.81383H17.8178C19.272 6.81383 20.4545 7.99636 20.4545 9.45055V12.2364Z" fill="white"/></svg>