<svg xmlns="http://www.w3.org/2000/svg" width="29" height="28" viewBox="0 0 29 28" fill="none"><path d="M14.4542 0.000976562C6.92227 0.000976562 0.817871 6.10538 0.817871 13.6373C0.817871 21.1693 6.92227 27.2737 14.4542 27.2737C21.9862 27.2737 28.0906 21.1693 28.0906 13.6373C28.0906 6.10538 21.9862 0.000976562 14.4542 0.000976562ZM10.6403 19.3422H7.98229V10.8355H10.6403V19.3422ZM9.23939 9.77015H9.21808C8.25395 9.77015 7.63073 9.12029 7.63073 8.29465C7.63073 7.45304 8.27526 6.81916 9.25537 6.81916C10.2355 6.81916 10.8374 7.45304 10.8587 8.29465C10.864 9.11497 10.2408 9.77015 9.23939 9.77015ZM21.2724 19.3422H18.2575V14.9424C18.2575 13.7918 17.7887 13.0035 16.75 13.0035C15.9564 13.0035 15.5142 13.5361 15.3118 14.0475C15.2373 14.2286 15.2479 14.4843 15.2479 14.7453V19.3422H12.2596C12.2596 19.3422 12.2969 11.5439 12.2596 10.8355H15.2479V12.1725C15.4237 11.5866 16.3772 10.7556 17.9006 10.7556C19.7916 10.7556 21.2724 11.9807 21.2724 14.6121V19.3422Z" fill="white"/></svg>