<svg width="131" height="26" viewBox="0 0 131 26" fill="none" xmlns="http://www.w3.org/2000/svg">
<path d="M21.1828 4.66873C20.078 3.66764 18.7618 2.89141 17.3179 2.38927C15.777 1.85417 14.1441 1.5861 12.4997 1.5983H0V4.89893H2.52707V24.7685H12.4328C14.0798 24.78 15.7157 24.518 17.264 23.9948C18.7146 23.5034 20.0369 22.7312 21.1438 21.7292C22.2601 20.6965 23.1333 19.4587 23.708 18.0945C24.3519 16.53 24.6673 14.8648 24.6371 13.1894C24.6648 11.5262 24.3546 9.87311 23.7229 8.31725C23.1621 6.94773 22.2964 5.7043 21.1828 4.66873ZM19.8691 16.7583C19.5257 17.7115 18.964 18.5838 18.2228 19.3147C17.5102 19.9968 16.6457 20.525 15.6901 20.862C14.6595 21.218 13.5672 21.394 12.4681 21.3813H6.6893V4.98373H12.4997C13.6045 4.96846 14.7027 5.14453 15.7384 5.50297C16.6831 5.842 17.5363 6.37023 18.2376 7.0503C18.9697 7.78553 19.5252 8.65759 19.8672 9.60842C20.2759 10.7596 20.4731 11.9667 20.4507 13.179C20.4739 14.3942 20.2767 15.6043 19.8672 16.7583H19.8691Z" fill="#EF273B"/>
<path d="M41.719 10.749C40.9091 10.0231 39.9469 9.46098 38.8928 9.09782C36.6078 8.33165 34.1075 8.33165 31.8226 9.09782C30.7671 9.46368 29.8024 10.0254 28.987 10.749C28.1673 11.4888 27.523 12.3802 27.0954 13.366C26.6246 14.4595 26.3897 15.6287 26.4042 16.8068C26.3869 17.9777 26.6193 19.1402 27.088 20.2268C27.5193 21.2046 28.1634 22.0886 28.9796 22.823C29.799 23.5481 30.7647 24.1146 31.8207 24.4898C34.103 25.2768 36.6123 25.2768 38.8946 24.4898C39.953 24.121 40.9174 23.5511 41.7264 22.8163C42.5354 22.0815 43.1714 21.1979 43.5939 20.2216C44.0618 19.1366 44.2942 17.976 44.2777 16.8068C44.2938 15.6309 44.0615 14.4635 43.5939 13.3712C43.1683 12.3867 42.5301 11.4942 41.719 10.749ZM39.9129 18.9478C39.6915 19.536 39.338 20.0735 38.8761 20.5245C38.4321 20.9479 37.8996 21.2819 37.3115 21.5059C36.6906 21.7397 36.0264 21.8573 35.3567 21.8521C33.9334 21.8521 32.7442 21.4072 31.8263 20.528C30.9083 19.6487 30.4345 18.3957 30.4345 16.8051C30.4345 15.2145 30.9028 13.9302 31.8263 13.051C32.7498 12.1717 33.9371 11.7269 35.3567 11.7269C36.0264 11.7216 36.6906 11.8393 37.3115 12.0731C37.9022 12.298 38.4348 12.6372 38.8742 13.0683C39.3357 13.5266 39.6894 14.0695 39.9129 14.6623C40.1701 15.3521 40.2959 16.0784 40.2845 16.8085C40.295 17.5363 40.1692 18.2602 39.9129 18.9478Z" fill="#2BC994"/>
<path d="M58.5704 18.8318C58.4486 19.6965 57.9848 20.4878 57.2697 21.0507C56.5747 21.5803 55.6531 21.8486 54.5289 21.8486C53.9044 21.8551 53.285 21.7438 52.7079 21.5215C52.1589 21.3029 51.6717 20.9688 51.2846 20.5453C50.8623 20.0778 50.5366 19.5414 50.3239 18.9634C50.0755 18.2684 49.9548 17.5393 49.9672 16.8068C49.9672 15.1729 50.3983 13.9025 51.2474 13.0337C51.6606 12.6076 52.1682 12.2703 52.7351 12.045C53.302 11.8196 53.9147 11.7117 54.5308 11.7287C55.5174 11.6996 56.483 11.9984 57.2548 12.5716C57.9795 13.1289 58.4106 13.9199 58.5369 14.922L58.5518 15.0483L62.4539 14.7177L62.4353 14.5827C62.3167 13.6948 62.0145 12.8366 61.5452 12.0558C61.1036 11.3256 60.5179 10.6797 59.819 10.1519C59.1026 9.61757 58.2888 9.20775 57.4165 8.94209C56.4838 8.65861 55.5081 8.51718 54.5271 8.52323C53.3572 8.51282 52.1952 8.7023 51.0988 9.08228C50.0814 9.43871 49.1568 9.99204 48.3859 10.7058C47.6036 11.447 46.9944 12.3309 46.5965 13.302C46.1421 14.4212 45.9189 15.6104 45.9387 16.8068C45.9189 17.9994 46.1401 19.1849 46.5909 20.3013C46.9905 21.2757 47.6066 22.1604 48.3989 22.8975C49.177 23.6091 50.1061 24.1615 51.1267 24.5192C53.158 25.2113 55.3765 25.266 57.4443 24.675C58.3055 24.4198 59.1109 24.0236 59.8228 23.505C60.5129 22.9951 61.0913 22.3663 61.5267 21.653C61.9834 20.8874 62.2976 20.0553 62.4557 19.1919L62.4836 19.0517L58.5815 18.7228L58.5704 18.8318Z" fill="#EF273B"/>
<path d="M78.2628 10.2939C77.6649 9.71793 76.9413 9.26819 76.1408 8.97499C75.2801 8.6672 74.3647 8.51393 73.4428 8.52326C72.2406 8.52326 71.213 8.73441 70.414 9.15154C69.819 9.44699 69.2874 9.84183 68.8457 10.3164V0.710449H64.8823V24.7685H68.8457V15.668C68.8457 14.6035 69.1932 13.7105 69.877 13.0129C70.5608 12.3154 71.4824 11.9745 72.6196 11.9745C73.6918 11.9745 74.5595 12.3016 75.1987 12.9437C75.8379 13.5858 76.165 14.5014 76.165 15.6437V24.7685H80.16V15.1782C80.1755 14.2279 80.0048 13.283 79.6564 12.3899C79.35 11.61 78.8758 10.8968 78.2628 10.2939Z" fill="#EF273B"/>
<path d="M94.9341 10.1831C93.7709 9.11001 92.0614 8.56654 89.8539 8.56654C88.875 8.55224 87.9024 8.71567 86.9905 9.0477C86.1963 9.33826 85.471 9.77104 84.8555 10.3216C84.2872 10.8383 83.8332 11.454 83.5195 12.1337C83.212 12.7887 83.0526 13.4957 83.0513 14.2107V14.2955L86.9534 14.4235V14.3335C86.9427 13.67 87.1925 13.0256 87.6558 12.5214C88.1166 12.0125 88.8673 11.7547 89.8855 11.7547C90.9038 11.7547 91.6452 12.0368 92.0967 12.5941C92.5482 13.1514 92.7842 13.9493 92.7842 14.9462V15.3236L88.8598 15.5347C88.0372 15.572 87.2209 15.688 86.4238 15.8809C85.7033 16.0501 85.0233 16.3437 84.4189 16.7463C83.8553 17.1225 83.3956 17.6177 83.0773 18.1915C82.7343 18.8687 82.5675 19.6117 82.5905 20.3602C82.5905 21.8504 83.1219 23.0169 84.1699 23.8218C85.2179 24.6266 86.6059 25.0333 88.308 25.0333C89.1955 25.0448 90.076 24.8858 90.8945 24.566C91.5875 24.2865 92.2265 23.9029 92.7861 23.4306V24.727H96.6882V14.8614C96.6882 12.8243 96.0991 11.2475 94.9341 10.1727V10.1831ZM92.8195 18.6086C92.8195 19.7804 92.4609 20.644 91.753 21.1754C91.045 21.7067 90.0806 21.9837 88.9323 21.9837C88.3135 22.0078 87.6994 21.8744 87.1559 21.5977C86.71 21.3467 86.4926 20.921 86.4926 20.2944C86.4926 19.6021 86.7527 19.1348 87.2841 18.8527C87.9391 18.5403 88.6629 18.3732 89.3987 18.3646L92.8195 18.1569V18.6086Z" fill="#EF273B"/>
<path d="M111.089 16.7929C110.518 16.4133 109.892 16.1103 109.231 15.8929C108.448 15.6275 107.651 15.4016 106.843 15.2162C106.273 15.0927 105.763 14.9854 105.314 14.8943C104.925 14.8197 104.545 14.7083 104.18 14.5619C103.909 14.458 103.667 14.2982 103.472 14.0946C103.298 13.8776 103.213 13.6102 103.231 13.34C103.22 13.1061 103.272 12.8733 103.38 12.6621C103.489 12.4509 103.651 12.2677 103.853 12.1284C104.273 11.8256 104.918 11.6715 105.769 11.6715C106.683 11.6715 107.369 11.874 107.813 12.2738C108.262 12.6894 108.533 13.2433 108.575 13.8315L108.584 13.9129L112.454 13.7208L112.443 13.629C112.357 12.9434 112.154 12.2749 111.841 11.649C111.536 11.033 111.1 10.4812 110.559 10.0273C109.977 9.55305 109.302 9.18861 108.571 8.95417C107.703 8.68255 106.792 8.55142 105.877 8.56647C103.801 8.56647 102.183 9.01648 101.062 9.90437C100.515 10.3301 100.078 10.8658 99.7847 11.4714C99.4915 12.0769 99.3495 12.7365 99.3694 13.4006C99.3694 14.2071 99.5162 14.8752 99.8079 15.3858C100.103 15.9007 100.532 16.3386 101.055 16.6597C101.64 17.0122 102.275 17.2888 102.941 17.4818C103.654 17.6964 104.448 17.8972 105.297 18.0806C105.973 18.2416 106.553 18.387 107.021 18.5082C107.409 18.6002 107.784 18.7362 108.136 18.9132C108.376 19.0318 108.575 19.212 108.708 19.4324C108.83 19.6733 108.888 19.9381 108.878 20.2043C108.891 20.4592 108.827 20.7124 108.692 20.9348C108.558 21.1571 108.359 21.3395 108.118 21.4609C107.502 21.7703 106.808 21.9197 106.109 21.8936C105.128 21.8936 104.368 21.6997 103.849 21.3155C103.325 20.9112 102.991 20.3315 102.92 19.7007L102.907 19.6211L99.0405 19.8478L99.0517 19.9378C99.2524 21.5267 99.9603 22.7884 101.159 23.6867C102.357 24.585 104 25.0384 106.051 25.0384C108.103 25.0384 109.777 24.5884 110.96 23.7023C112.144 22.8161 112.755 21.5405 112.755 19.9274C112.781 19.3187 112.644 18.7135 112.356 18.1665C112.068 17.6196 111.638 17.1481 111.105 16.7947L111.089 16.7929Z" fill="#EF273B"/>
<path d="M130.999 16.4035C131.017 15.2992 130.828 14.2006 130.441 13.1565C130.096 12.2368 129.552 11.3927 128.843 10.6763C128.141 9.9855 127.281 9.44975 126.328 9.10817C125.268 8.73492 124.142 8.55113 123.009 8.56644C121.842 8.55553 120.682 8.74383 119.588 9.12202C118.573 9.4774 117.652 10.0323 116.888 10.749C116.115 11.492 115.514 12.3758 115.125 13.3452C114.687 14.4528 114.472 15.6264 114.493 16.8068C114.475 17.9818 114.689 19.1499 115.125 20.2528C115.515 21.2281 116.121 22.1158 116.905 22.8576C117.68 23.575 118.611 24.1297 119.635 24.4846C120.745 24.8649 121.921 25.0538 123.104 25.0419C124.05 25.0481 124.991 24.9119 125.891 24.6386C126.719 24.3895 127.501 24.0248 128.212 23.5569C128.872 23.1169 129.442 22.5699 129.895 21.942C130.33 21.3363 130.645 20.6627 130.824 19.9533L130.85 19.8512L126.948 19.6591L126.926 19.7231C126.709 20.3954 126.23 20.968 125.584 21.3293C124.923 21.7084 124.053 21.8987 123.002 21.8987C121.738 21.8987 120.703 21.5526 119.924 20.881C119.146 20.2095 118.72 19.3233 118.598 18.181H130.999V16.4035ZM118.642 15.3062C118.763 14.1534 119.2 13.2569 119.967 12.639C120.735 12.0211 121.76 11.6801 122.981 11.6801C124.328 11.6801 125.35 12.0263 126.019 12.6944C126.688 13.3625 127.034 14.2296 127.093 15.3062H118.642Z" fill="#EF273B"/>
</svg>
