<svg xmlns="http://www.w3.org/2000/svg" width="28" height="28" viewBox="0 0 28 28" fill="none"><path d="M14.1813 0.000976562C6.64932 0.000976562 0.544922 6.10538 0.544922 13.6373C0.544922 21.1693 6.64932 27.2737 14.1813 27.2737C21.7132 27.2737 27.8176 21.1693 27.8176 13.6373C27.8176 6.10538 21.7132 0.000976562 14.1813 0.000976562ZM19.6252 11.5173C19.6305 11.6345 19.6305 11.757 19.6305 11.8795C19.6305 15.5816 16.8127 19.8536 11.6564 19.8536C10.0744 19.8536 8.5989 19.3902 7.3631 18.5965C7.5815 18.6231 7.80522 18.6338 8.03427 18.6338C9.34464 18.6338 10.5538 18.1863 11.5126 17.4353C10.2875 17.414 9.24876 16.6043 8.89719 15.491C9.06765 15.523 9.24343 15.539 9.42454 15.539C9.68022 15.539 9.93057 15.507 10.1649 15.4378C8.88121 15.1821 7.91708 14.0475 7.91708 12.6892V12.6572C8.29528 12.865 8.72674 12.9928 9.18484 13.0088C8.43377 12.5081 7.93839 11.6452 7.93839 10.6757C7.93839 10.1643 8.07688 9.6796 8.31658 9.26411C9.70153 10.9633 11.763 12.0766 14.0907 12.1938C14.0428 11.9914 14.0162 11.7783 14.0162 11.5546C14.0162 10.0099 15.2733 8.75275 16.818 8.75275C17.6223 8.75275 18.3521 9.09366 18.8635 9.63698C19.5027 9.50914 20.0993 9.2801 20.6426 8.95517C20.4348 9.61035 19.9874 10.159 19.4121 10.5052C19.9767 10.436 20.5201 10.2868 21.0208 10.0631C20.6479 10.6278 20.1738 11.1178 19.6252 11.5173Z" fill="white"/></svg>